# File created by Blade
# Date/Time:  Tue Jan 27 19:14:14 2015
#---------------------------------------------------------
:version 1.10
:name HOM
:units
  mass 1.0
  length 1.000000
  angle deg
:documentation
     Acclaim Skeleton File
:root
   axis xyz
   order TX TY TZ RX RY RZ
   position 0.000000 0.000000 0.000000
   orientation 0 0 0
:bonedata
   begin
      id 1
      name Spine_dum
      direction 0.000000 1.000000 0.000000
      length 6.116652
      axis 0.0 0.0 0.0 xyz
   end
   begin
      id 2
      name LeftUpLeg_dum
      direction 1.000000 0.000000 0.000000
      length 4.711765
      axis 0.0 0.0 0.0 xyz
   end
   begin
      id 3
      name RightUpLeg_dum
      direction -1.000000 0.000000 0.000000
      length 4.711765
      axis 0.0 0.0 0.0 xyz
   end
   begin
      id 4
      name Spine
      direction 0.000000 1.000000 0.000000
      length 0.000000
      axis 0.0 0.0 0.0 xyz
      dof rx ry rz
   end
   begin
      id 5
      name Spine_dum1
      direction 0.000000 1.000000 0.000000
      length 15.225563
      axis 0.0 0.0 0.0 xyz
   end
   begin
      id 6
      name Spine_dum2
      direction 0.000000 1.000000 0.000000
      length 8.977654
      axis 0.0 0.0 0.0 xyz
   end
   begin
      id 7
      name Spine_dum3
      direction 0.000000 1.000000 0.000000
      length 8.977654
      axis 0.0 0.0 0.0 xyz
   end
   begin
      id 8
      name Head
      direction 0.000000 1.000000 0.000000
      length 4.527550
      axis 0.0 0.0 0.0 xyz
      dof rx ry rz
   end
   begin
      id 9
      name LeftShoulder
      direction 1.000000 0.000000 0.000000
      length 7.110130
      axis 0.0 0.0 -90.0 xyz
      dof rx ry rz
   end
   begin
      id 10
      name LeftArm
      direction 1.000000 0.000000 0.000000
      length 10.398341
      axis 0.0 0.0 -90.0 xyz
      dof rx ry rz
   end
   begin
      id 11
      name LeftForeArm
      direction 1.000000 0.000000 0.000000
      length 8.888997
      axis 0.0 0.0 -90.0 xyz
      dof ry rz rx
   end
   begin
      id 12
      name LeftHand
      direction 0.000000 0.000000 0.000000
      length 0.000000
      axis 0.0 0.0 -90.0 xyz
      dof rx ry rz
   end
   begin
      id 13
      name LeftHand_dum1
      direction 0.000000 0.000000 0.000000
      length 0.000000
      axis 0.0 0.0 -90.0 xyz
   end
   begin
      id 14
      name LeftHand_dum2
      direction 1.000000 0.000000 0.000000
      length 3.937000
      axis 0.0 0.0 -90.0 xyz
   end
   begin
      id 15
      name LeftHandThumb1
      direction 0.000000 0.000000 1.000000
      length 3.937000
      axis 0.0 0.0 -90.0 xyz
      dof rx rz ry
   end
   begin
      id 16
      name RightShoulder
      direction -1.000000 0.000000 0.000000
      length 7.110130
      axis 0.0 0.0 90.0 xyz
      dof rx ry rz
   end
   begin
      id 17
      name RightArm
      direction -1.000000 0.000000 0.000000
      length 10.398341
      axis 0.0 0.0 90.0 xyz
      dof rx ry rz
   end
   begin
      id 18
      name RightForeArm
      direction -1.000000 0.000000 0.000000
      length 8.888997
      axis 0.0 0.0 90.0 xyz
      dof ry rz rx
   end
   begin
      id 19
      name RightHand
      direction 0.000000 0.000000 0.000000
      length 0.000000
      axis 0.0 0.0 90.0 xyz
      dof rx ry rz
   end
   begin
      id 20
      name RightHand_dum1
      direction 0.000000 0.000000 0.000000
      length 0.000000
      axis 0.0 0.0 90.0 xyz
   end
   begin
      id 21
      name RightHand_dum2
      direction -1.000000 0.000000 0.000000
      length 3.937000
      axis 0.0 0.0 90.0 xyz
   end
   begin
      id 22
      name RightHandThumb1
      direction 0.000000 0.000000 1.000000
      length 3.937000
      axis 0.0 0.0 90.0 xyz
      dof rx rz ry
   end
   begin
      id 23
      name LeftUpLeg
      direction 0.000000 -1.000000 0.000000
      length 15.510451
      axis 0.0 0.0 0.0 xyz
      dof rx ry rz
   end
   begin
      id 24
      name LeftLeg
      direction 0.000000 -1.000000 0.000000
      length 14.858061
      axis 0.0 0.0 0.0 xyz
      dof rx ry rz
   end
   begin
      id 25
      name LeftFoot
      direction 0.000000 -0.258819 0.965926
      length 5.128852
      axis 15.0 0.0 0.0 xyz
      dof rx ry rz
   end
   begin
      id 26
      name LeftToeBase
      direction 0.000000 0.000000 1.000000
      length 2.952750
      axis 0.0 0.0 0.0 xyz
      dof rx ry rz
   end
   begin
      id 27
      name RightUpLeg
      direction 0.000000 -1.000000 0.000000
      length 15.510451
      axis 0.0 0.0 0.0 xyz
      dof rx ry rz
   end
   begin
      id 28
      name RightLeg
      direction 0.000000 -1.000000 0.000000
      length 14.858061
      axis 0.0 0.0 0.0 xyz
      dof rx ry rz
   end
   begin
      id 29
      name RightFoot
      direction 0.000000 -0.258819 0.965926
      length 5.128852
      axis 15.0 0.0 0.0 xyz
      dof rx ry rz
   end
   begin
      id 30
      name RightToeBase
      direction 0.000000 0.000000 1.000000
      length 2.952750
      axis 0.0 0.0 0.0 xyz
      dof rx ry rz
   end
:hierarchy
   begin
      root Spine_dum LeftUpLeg_dum RightUpLeg_dum
      Spine_dum Spine
      LeftUpLeg_dum LeftUpLeg
      RightUpLeg_dum RightUpLeg
      Spine Spine_dum1 Spine_dum2 Spine_dum3
      Spine_dum1 Head
      Spine_dum2 LeftShoulder
      Spine_dum3 RightShoulder
      LeftShoulder LeftArm
      LeftArm LeftForeArm
      LeftForeArm LeftHand
      LeftHand LeftHand_dum1 LeftHand_dum2
      LeftHand_dum1 LeftHandThumb1
      RightShoulder RightArm
      RightArm RightForeArm
      RightForeArm RightHand
      RightHand RightHand_dum1 RightHand_dum2
      RightHand_dum1 RightHandThumb1
      LeftUpLeg LeftLeg
      LeftLeg LeftFoot
      LeftFoot LeftToeBase
      RightUpLeg RightLeg
      RightLeg RightFoot
      RightFoot RightToeBase
   end

# File created by Blade
# Date/Time:  Tue Jan 27 19:14:06 2015
# Frame Rate: 120.000 fps
#------------------------------------------------------
:FULLY-SPECIFIED
:DEGREES
564
root 4.589881 32.434548 1.094585 -2.511905 30.760005 3.779107
Spine -3.525477 16.453735 -6.212405
Head 17.393330 -25.806278 -7.208588
LeftShoulder -7.634155 -12.027552 24.396504
LeftArm -5.324673 38.787095 -104.940337
LeftForeArm 6.636202 -0.000000 8.106571
LeftHand 9.534246 0.000000 -7.208787
LeftHandThumb1 -26.253704 0.000000 33.147579
RightShoulder -14.375342 24.544197 -64.628916
RightArm 97.260560 51.750092 116.095783
RightForeArm 29.221606 -0.000000 66.832706
RightHand 25.096761 -0.000000 -3.034762
RightHandThumb1 -24.326973 -0.000000 -32.862282
LeftUpLeg 4.984911 -16.654968 -3.580732
LeftLeg 5.673860 -0.000000 -0.000000
LeftFoot -9.400098 -1.099950 -19.832853
LeftToeBase 20.979735 -0.000000 -0.000000
RightUpLeg 15.581722 -11.021781 0.970079
RightLeg -4.157343 -0.000000 0.000000
RightFoot -19.987090 -28.249067 23.382050
RightToeBase 12.485389 -0.000000 -0.000000
565
root 4.590146 32.433795 1.097591 -2.514172 30.838398 3.793330
Spine -3.533615 16.511202 -6.230899
Head 17.238747 -25.875383 -7.083748
LeftShoulder -7.650061 -12.036445 24.397446
LeftArm -5.241750 38.892552 -104.919224
LeftForeArm 6.637992 -0.000000 8.070587
LeftHand 9.554992 -0.000000 -7.211633
LeftHandThumb1 -26.253704 0.000000 33.147579
RightShoulder -14.373146 24.624987 -64.648391
RightArm 96.516968 51.808011 115.052274
RightForeArm 29.139491 0.000000 65.317504
RightHand 24.890820 -0.000000 -3.049968
RightHandThumb1 -24.326973 -0.000000 -32.862282
LeftUpLeg 4.991730 -16.670799 -3.585566
LeftLeg 5.654793 -0.000000 -0.000000
LeftFoot -9.388035 -1.140687 -19.949125
LeftToeBase 21.153858 -0.000000 -0.000000
RightUpLeg 15.604626 -11.023819 0.971091
RightLeg -4.158539 -0.000000 0.000000
RightFoot -20.011903 -28.321334 23.396031
RightToeBase 12.433282 -0.000000 -0.000000
566
root 4.590679 32.432639 1.100924 -2.509504 30.911995 3.810364
Spine -3.562335 16.576324 -6.277302
Head 17.138113 -25.867649 -6.930812
LeftShoulder -7.629978 -12.103788 24.425649
LeftArm -5.239009 39.041395 -104.962012
LeftForeArm 6.539324 -0.000000 8.026023
LeftHand 9.548023 -0.000000 -7.210902
LeftHandThumb1 -26.253704 0.000000 33.147579
RightShoulder -14.352483 24.584641 -64.591019
RightArm 95.943771 51.788650 114.146747
RightForeArm 29.025645 -0.000000 63.840329
RightHand 24.716006 -0.000000 -3.193783
RightHandThumb1 -24.326973 -0.000000 -32.862282
LeftUpLeg 4.999756 -16.699321 -3.599043
LeftLeg 5.649635 -0.000000 -0.000000
LeftFoot -9.361059 -1.160245 -19.949225
LeftToeBase 21.053326 -0.000000 -0.000000
RightUpLeg 15.627649 -10.993182 0.977729
RightLeg -4.170098 -0.000000 0.000000
RightFoot -20.063088 -28.406157 23.417207
RightToeBase 12.412232 -0.000000 -0.000000
567
root 4.590455 32.432111 1.102953 -2.507276 30.981417 3.816509
Spine -3.577709 16.646942 -6.303904
Head 16.988172 -25.907214 -6.775960
LeftShoulder -7.634432 -12.135207 24.422713
LeftArm -5.223100 39.084722 -104.953994
LeftForeArm 6.528938 -0.000000 8.079012
LeftHand 9.542043 -0.000000 -7.196106
LeftHandThumb1 -26.253704 0.000000 33.147579
RightShoulder -14.346792 24.624973 -64.572988
RightArm 95.233327 51.831986 113.152011
RightForeArm 28.985867 -0.000000 62.422345
RightHand 24.682548 -0.000000 -3.568810
RightHandThumb1 -24.326973 -0.000000 -32.862282
LeftUpLeg 5.005418 -16.738642 -3.600858
LeftLeg 5.632670 -0.000000 -0.000000
LeftFoot -9.332118 -1.183990 -19.768781
LeftToeBase 20.961901 -0.000000 -0.000000
RightUpLeg 15.644188 -10.999822 0.985851
RightLeg -4.181939 -0.000000 0.000000
RightFoot -20.097151 -28.465120 23.448191
RightToeBase 12.433242 -0.000000 -0.000000
568
root 4.590007 32.432582 1.103353 -2.503306 31.054812 3.822868
Spine -3.555806 16.722784 -6.310193
Head 16.755949 -25.881537 -6.669225
LeftShoulder -7.679211 -12.173579 24.399248
LeftArm -5.176907 39.238871 -104.929347
LeftForeArm 6.469552 -0.000000 8.114380
LeftHand 9.568670 -0.000000 -7.228657
LeftHandThumb1 -26.253704 0.000000 33.147579
RightShoulder -14.448447 24.606532 -64.624415
RightArm 94.606838 51.736920 112.327700
RightForeArm 29.030493 0.000000 61.035077
RightHand 24.572603 -0.000000 -3.617880
RightHandThumb1 -24.326973 -0.000000 -32.862282
LeftUpLeg 4.997644 -16.778788 -3.602491
LeftLeg 5.629940 -0.000000 -0.000000
LeftFoot -9.310303 -1.212057 -19.774623
LeftToeBase 20.998109 -0.000000 -0.000000
RightUpLeg 15.652253 -11.016315 0.988862
RightLeg -4.184781 -0.000000 0.000000
RightFoot -20.093175 -28.507283 23.435839
RightToeBase 12.358919 -0.000000 -0.000000
569
root 4.589211 32.432272 1.104308 -2.501635 31.131804 3.828598
Spine -3.560271 16.792376 -6.332453
Head 16.606140 -25.937287 -6.558162
LeftShoulder -7.690815 -12.118743 24.380488
LeftArm -5.085888 39.378319 -104.857354
LeftForeArm 6.433799 -0.000000 8.257543
LeftHand 9.494572 -0.000000 -7.142167
LeftHandThumb1 -26.253704 0.000000 33.147579
RightShoulder -14.511812 24.602249 -64.638426
RightArm 94.024018 51.615055 111.574834
RightForeArm 29.159401 -0.000000 59.684987
RightHand 24.392156 0.000000 -3.531067
RightHandThumb1 -24.326973 -0.000000 -32.862282
LeftUpLeg 4.998171 -16.798889 -3.603490
LeftLeg 5.613818 -0.000000 -0.000000
LeftFoot -9.278707 -1.226329 -19.922585
LeftToeBase 20.984506 -0.000000 -0.000000
RightUpLeg 15.666574 -11.043417 0.991189
RightLeg -4.187193 -0.000000 0.000000
RightFoot -20.125054 -28.533975 23.460254
RightToeBase 12.372318 -0.000000 -0.000000
570
root 4.589002 32.431544 1.105147 -2.489353 31.213551 3.839737
Spine -3.580789 16.843901 -6.368424
Head 16.463065 -26.043388 -6.435154
LeftShoulder -7.714245 -12.092129 24.384164
LeftArm -5.038749 39.399136 -104.829035
LeftForeArm 6.472990 -0.000000 8.376015
LeftHand 9.464389 -0.000000 -7.115604
LeftHandThumb1 -26.253704 0.000000 33.147579
RightShoulder -14.554251 24.626983 -64.633702
RightArm 93.465142 51.479370 110.840733
RightForeArm 29.193965 -0.000000 58.313083
RightHand 24.267565 -0.000000 -3.423206
RightHandThumb1 -24.326973 -0.000000 -32.862282
LeftUpLeg 4.994251 -16.848859 -3.609156
LeftLeg 5.601299 -0.000000 -0.000000
LeftFoot -9.243359 -1.253519 -19.810062
LeftToeBase 20.822618 -0.000000 -0.000000
RightUpLeg 15.676697 -11.054947 0.993183
RightLeg -4.199289 -0.000000 0.000000
RightFoot -20.137700 -28.583851 23.474155
RightToeBase 12.350258 -0.000000 -0.000000
571
root 4.587416 32.430220 1.107327 -2.496435 31.300259 3.836298
Spine -3.586659 16.882242 -6.388355
Head 16.326469 -26.149928 -6.312154
LeftShoulder -7.717995 -12.020506 24.382884
LeftArm -4.944507 39.389884 -104.765355
LeftForeArm 6.496876 -0.000000 8.504817
LeftHand 9.522753 -0.000000 -7.138089
LeftHandThumb1 -26.253704 0.000000 33.147579
RightShoulder -14.591501 24.610088 -64.629081
RightArm 93.074291 51.331888 110.342169
RightForeArm 29.018374 -0.000000 56.978391
RightHand 24.236944 0.000000 -2.987097
RightHandThumb1 -24.326973 -0.000000 -32.862282
LeftUpLeg 5.010645 -16.898559 -3.601614
LeftLeg 5.566312 -0.000000 -0.000000
LeftFoot -9.219023 -1.283708 -19.821328
LeftToeBase 20.780686 -0.000000 -0.000000
RightUpLeg 15.697883 -11.108619 0.995597
RightLeg -4.199751 -0.000000 0.000000
RightFoot -20.151440 -28.573441 23.499447
RightToeBase 12.341050 -0.000000 -0.000000
572
root 4.586361 32.428859 1.107091 -2.485212 31.380522 3.851816
Spine -3.595133 16.922333 -6.422529
Head 16.170754 -26.223321 -6.175639
LeftShoulder -7.731697 -11.955044 24.383968
LeftArm -4.877775 39.372916 -104.715932
LeftForeArm 6.487803 -0.000000 8.668377
LeftHand 9.539902 -0.000000 -7.178858
LeftHandThumb1 -26.253704 0.000000 33.147579
RightShoulder -14.622272 24.682016 -64.644419
RightArm 92.501014 51.251653 109.595397
RightForeArm 29.042380 -0.000000 55.584179
RightHand 23.988101 -0.000000 -2.714532
RightHandThumb1 -24.326973 -0.000000 -32.862282
LeftUpLeg 5.011722 -16.913637 -3.608524
LeftLeg 5.526597 -0.000000 -0.000000
LeftFoot -9.206075 -1.277466 -19.847766
LeftToeBase 20.953046 -0.000000 -0.000000
RightUpLeg 15.711955 -11.094490 0.998421
RightLeg -4.212789 -0.000000 0.000000
RightFoot -20.191579 -28.623006 23.529858
RightToeBase 12.360544 -0.000000 -0.000000
573
root 4.573280 32.425683 1.099087 -2.405397 31.528076 3.820087
Spine -3.678003 16.882776 -6.452274
Head 15.978613 -26.298636 -5.997212
LeftShoulder -7.728444 -11.900715 24.384509
LeftArm -4.823629 39.312150 -104.670342
LeftForeArm 6.415736 -0.000000 8.849173
LeftHand 9.599668 -0.000000 -7.488321
LeftHandThumb1 -26.253704 0.000000 33.147579
RightShoulder -14.629879 24.704276 -64.625382
RightArm 91.829394 51.259191 108.621988
RightForeArm 29.099752 -0.000000 54.154316
RightHand 23.729458 0.000000 -2.518767
RightHandThumb1 -24.326973 -0.000000 -32.862282
LeftUpLeg 4.908991 -16.915177 -3.518946
LeftLeg 5.423345 -0.000000 -0.000000
LeftFoot -9.169787 -1.354161 -19.750592
LeftToeBase 21.154364 -0.000000 -0.000000
RightUpLeg 15.598315 -11.150445 1.076438
RightLeg -4.202577 -0.000000 0.000000
RightFoot -20.226951 -28.711922 23.528418
RightToeBase 12.333137 -0.000000 -0.000000
574
root 4.571650 32.423968 1.098934 -2.394153 31.598806 3.830567
Spine -3.686242 16.909777 -6.480695
Head 15.818943 -26.349607 -5.841806
LeftShoulder -7.763586 -11.787291 24.377420
LeftArm -4.737227 39.189021 -104.600770
LeftForeArm 6.525586 -0.000000 9.054498
LeftHand 9.599384 -0.000000 -7.598103
LeftHandThumb1 -26.253704 0.000000 33.147579
RightShoulder -14.619745 24.716724 -64.601128
RightArm 91.162517 51.263945 107.573312
RightForeArm 29.005921 -0.000000 52.645007
RightHand 23.478962 -0.000000 -2.474677
RightHandThumb1 -24.326973 -0.000000 -32.862282
LeftUpLeg 4.915921 -16.955532 -3.525074
LeftLeg 5.390573 -0.000000 -0.000000
LeftFoot -9.126776 -1.364927 -19.797505
LeftToeBase 20.908498 -0.000000 -0.000000
RightUpLeg 15.608496 -11.155223 1.081561
RightLeg -4.219671 -0.000000 0.000000
RightFoot -20.252977 -28.755013 23.536967
RightToeBase 12.344898 -0.000000 -0.000000
575
root 4.572059 32.422614 1.099851 -2.382260 31.655161 3.852135
Spine -3.712586 16.962785 -6.533783
Head 15.664818 -26.631711 -5.638735
LeftShoulder -7.753763 -11.709471 24.379988
LeftArm -4.698316 39.235880 -104.576737
LeftForeArm 6.572787 0.000000 9.215997
LeftHand 9.601840 -0.000000 -7.228336
LeftHandThumb1 -26.253704 0.000000 33.147579
RightShoulder -14.603275 24.775002 -64.559655
RightArm 90.331044 51.302609 106.305389
RightForeArm 28.839008 -0.000000 51.077695
RightHand 23.236739 -0.000000 -2.443100
RightHandThumb1 -24.326973 -0.000000 -32.862282
LeftUpLeg 4.932187 -16.974806 -3.541849
LeftLeg 5.346444 -0.000000 -0.000000
LeftFoot -9.093600 -1.372502 -19.798313
LeftToeBase 20.902612 -0.000000 -0.000000
RightUpLeg 15.639023 -11.101381 1.079372
RightLeg -4.248326 -0.000000 0.000000
RightFoot -20.505391 -28.743227 23.846532
RightToeBase 12.791247 -0.000000 -0.000000
